<?xml version="1.0" standalone="no"?>
<!DOCTYPE svg PUBLIC "-//W3C//DTD SVG 20010904//EN"
 "http://www.w3.org/TR/2001/REC-SVG-20010904/DTD/svg10.dtd">
<svg version="1.0" xmlns="http://www.w3.org/2000/svg"
 width="300.000000pt" height="110.000000pt" viewBox="0 0 300.000000 110.000000"
 preserveAspectRatio="xMidYMid meet">
<metadata>
Created by potrace 1.10, written by Peter Selinger 2001-2011
</metadata>
<g transform="translate(0.000000,110.000000) scale(0.100000,-0.100000)"
fill="#000000" stroke="none">
<path d="M1640 1085 c-14 -7 -59 -53 -101 -102 -42 -48 -89 -101 -103 -117
-26 -27 -27 -29 -9 -48 17 -19 17 -20 -2 -34 -10 -8 -21 -11 -24 -6 -15 19
-159 142 -168 142 -21 0 -45 -28 -52 -63 -9 -37 2 -53 14 -19 3 9 12 26 20 36
14 19 15 19 35 1 11 -10 20 -23 20 -30 0 -16 37 -46 85 -70 53 -26 83 -27 91
-3 3 10 17 26 30 35 23 15 24 17 7 35 -16 18 -15 20 20 56 20 20 59 65 87 99
49 61 80 74 80 34 0 -9 11 -32 25 -51 14 -19 25 -35 25 -36 0 -10 -173 -83
-183 -78 -9 5 -9 4 0 -6 9 -10 19 -10 43 -2 29 10 31 10 25 -8 -5 -15 0 -21
22 -26 52 -13 48 -19 -17 -25 l-65 -6 78 -1 c42 -1 77 -6 77 -10 0 -4 21 -9
48 -10 28 -1 51 -8 58 -17 17 -22 24 -18 24 13 0 47 11 72 31 72 23 0 23 9 -2
-121 -11 -60 -18 -130 -16 -156 3 -34 -1 -57 -13 -78 -10 -16 -20 -50 -23 -75
-7 -53 7 -33 18 25 3 22 19 53 33 68 26 27 26 29 8 42 -20 15 -19 45 9 191 8
43 15 80 15 82 0 1 30 2 68 3 47 1 60 3 42 9 l-25 7 26 11 c26 10 54 15 77 13
10 -1 9 -8 -3 -31 -8 -16 -15 -45 -15 -65 0 -22 -4 -34 -10 -30 -6 4 -10 -9
-11 -32 -1 -34 -2 -35 -9 -13 -8 24 -8 24 -9 -5 0 -16 3 -36 8 -43 14 -23 27
8 40 96 17 114 15 112 70 112 l47 0 12 -93 c7 -51 17 -106 21 -123 l9 -29 1
30 1 30 20 -33 c18 -29 19 -35 6 -48 -13 -12 -16 -12 -24 2 -15 27 -61 -50
-69 -114 -10 -84 36 -182 72 -152 18 15 20 -1 3 -19 -11 -11 -9 -11 9 0 18 11
25 11 35 1 15 -15 84 -16 129 -1 51 17 97 55 119 99 30 59 24 61 -12 5 -71
-108 -190 -138 -266 -66 -100 93 -27 264 128 299 29 6 36 10 20 11 l-25 1 29
15 c23 12 36 13 59 5 38 -13 37 -13 37 4 0 8 -13 17 -29 21 -27 6 -29 8 -21
37 5 17 9 33 8 37 -2 23 3 51 11 51 5 0 17 -7 26 -16 8 -9 24 -14 35 -11 10 3
21 0 23 -6 4 -13 122 -38 143 -30 19 7 44 -15 44 -38 0 -11 5 -19 10 -19 6 0
10 9 10 19 0 25 11 32 38 24 19 -5 20 -7 7 -17 -8 -6 -26 -54 -39 -106 -15
-59 -26 -87 -29 -75 -5 16 -6 15 -5 -5 1 -47 -3 -57 -12 -35 -7 17 -9 15 -9
-12 -1 -37 14 -51 27 -26 5 10 22 71 36 136 15 64 32 117 38 117 5 0 37 -7 69
-15 33 -9 64 -13 69 -10 13 8 12 -26 -1 -45 -8 -12 -9 -10 -4 9 4 14 3 21 -2
18 -5 -3 -18 -33 -28 -66 -10 -33 -22 -58 -26 -55 -5 3 -6 -2 -3 -11 4 -9 2
-26 -4 -38 -6 -12 -32 -88 -58 -169 -27 -81 -52 -144 -56 -142 -4 3 -5 -1 -2
-9 3 -8 -2 -31 -10 -51 -8 -20 -11 -34 -5 -30 6 3 14 16 19 28 7 16 9 17 9 4
1 -9 -3 -20 -9 -23 -5 -3 -10 -15 -10 -26 0 -24 -25 -25 -97 -2 -50 16 -53 19
-53 49 0 36 -2 36 -107 49 -29 4 -55 10 -57 14 -3 4 -1 24 3 44 10 40 18 38
-81 22 -41 -7 -67 -31 -61 -56 4 -16 0 -19 -25 -19 -32 0 -182 27 -189 34 -2
2 -8 26 -12 53 l-7 48 -16 -35 -15 -35 -29 55 -29 55 -3 -33 c-3 -30 -5 -32
-43 -32 -22 0 -72 5 -111 12 l-70 11 5 50 c6 43 4 48 -11 42 -9 -4 -44 -14
-77 -23 -68 -17 -94 -35 -96 -66 -1 -16 -3 -13 -10 9 -10 37 -4 -62 6 -113 l7
-33 -191 95 c-185 93 -191 95 -191 71 0 -22 19 -34 178 -114 172 -86 178 -88
206 -74 28 15 28 15 24 99 -2 69 0 84 12 84 8 0 35 9 59 20 l43 20 -7 -37 c-4
-21 -7 -42 -8 -48 -1 -5 12 -11 28 -13 17 -2 66 -10 109 -18 70 -13 82 -12
102 1 22 14 24 14 30 -10 6 -25 28 -33 39 -15 11 18 25 0 25 -31 0 -16 4 -29
8 -29 5 0 60 -9 122 -20 92 -17 119 -19 142 -9 25 10 28 15 22 45 -5 25 -3 34
7 34 8 0 25 3 38 7 23 6 24 4 19 -35 -7 -46 -5 -47 102 -59 l60 -6 0 -36 0
-36 74 -22 c41 -13 81 -25 88 -28 8 -3 26 5 40 18 19 18 49 97 132 346 58 177
106 325 106 329 0 6 -111 35 -179 48 -8 2 -25 5 -37 8 -13 4 -26 2 -29 -4 -9
-15 -25 -12 -25 5 0 8 -10 17 -22 19 -13 2 -76 16 -140 31 -109 24 -119 25
-140 11 -20 -15 -22 -23 -19 -86 l3 -70 -34 0 c-18 0 -51 -9 -72 -21 -21 -11
-39 -19 -40 -17 -1 2 -11 59 -22 128 l-20 125 -87 3 c-63 2 -95 -1 -116 -13
-19 -9 -57 -15 -101 -15 -91 0 -130 -18 -130 -60 0 -30 -13 -40 -26 -19 -10
17 -86 49 -116 49 -16 0 -28 5 -28 10 0 6 5 10 11 10 9 0 133 56 148 67 3 2
-109 174 -113 173 -1 -1 -12 -7 -26 -15z m590 -508 c0 -2 -8 -19 -17 -38 -23
-45 -23 -134 0 -178 19 -38 15 -55 -7 -25 -38 51 -39 141 -4 216 11 23 28 38
28 25z"/>
<path d="M1586 959 c-49 -54 -65 -79 -52 -79 2 0 29 32 60 70 31 39 55 70 52
70 -2 0 -29 -28 -60 -61z"/>
<path d="M1140 908 c-14 -6 -74 -26 -135 -44 -154 -48 -151 -46 -147 -133 4
-71 4 -73 28 -67 19 5 24 2 24 -13 0 -13 9 -20 30 -23 24 -4 30 -1 25 9 -3 8
-5 24 -5 35 0 15 -5 19 -19 15 -31 -8 -37 5 -33 66 3 46 7 57 22 57 12 0 17
-7 15 -22 -1 -13 0 -15 2 -6 3 11 22 21 56 28 29 6 66 17 82 25 30 13 30 13 5
15 -18 1 -11 6 25 17 46 14 64 27 65 46 0 9 -9 8 -40 -5z"/>
<path d="M335 866 c-85 -20 -156 -48 -233 -94 -113 -67 -111 -60 -36 -187 63
-106 71 -115 104 -101 12 5 38 -47 119 -231 58 -131 107 -241 110 -244 8 -10
212 58 238 79 l21 17 -18 59 c-24 76 -45 99 -36 39 8 -55 0 -55 -14 -2 -6 23
-13 39 -16 36 -8 -8 18 -97 28 -97 5 0 8 -10 6 -22 -2 -18 -19 -28 -78 -50
-41 -15 -76 -28 -78 -28 -2 0 -52 105 -102 215 -76 167 -121 255 -132 256 -7
1 -24 2 -37 2 -19 2 -33 20 -74 100 -43 82 -49 100 -37 107 8 6 21 7 29 5 8
-3 36 6 62 20 27 14 55 25 64 25 8 0 15 4 15 9 0 18 132 42 220 40 123 -3 138
-4 146 -12 5 -5 0 -5 -10 -1 -14 5 -17 4 -12 -4 4 -7 16 -12 27 -12 13 0 18
-4 13 -12 -5 -8 -2 -9 10 -5 9 4 14 3 11 -2 -3 -5 -1 -12 5 -16 18 -11 40 -76
40 -117 0 -71 -64 -171 -147 -228 -20 -14 -21 -17 -7 -45 12 -26 14 -27 9 -5
-3 20 6 35 50 77 58 56 85 100 106 173 13 44 13 45 17 13 2 -17 10 -37 18 -44
13 -10 12 -15 -7 -35 -12 -13 -28 -20 -36 -17 -12 5 -14 1 -8 -16 4 -13 1 -28
-6 -37 -20 -24 -15 -126 7 -165 54 -92 183 -103 279 -24 55 46 80 112 76 201
-1 23 -59 109 -68 101 -3 -3 7 -18 21 -34 33 -35 40 -60 34 -123 -15 -155
-212 -245 -310 -143 -111 116 20 328 189 311 42 -5 45 -4 22 6 -15 6 -26 16
-25 21 3 28 -97 9 -164 -32 -3 -2 -3 22 -2 52 6 90 -51 167 -153 210 -55 22
-177 28 -250 11z"/>
<path d="M1228 823 c-9 -10 -31 -39 -50 -64 l-35 -47 -2 56 c-3 85 -11 76 -12
-14 -1 -61 -3 -71 -9 -44 -7 33 -7 33 -9 -15 -1 -59 -1 -58 83 63 54 78 68
103 34 65z"/>
<path d="M1938 803 c12 -2 30 -2 40 0 9 3 -1 5 -23 4 -22 0 -30 -2 -17 -4z"/>
<path d="M2002 780 c0 -8 4 -26 8 -40 6 -20 8 -21 8 -5 0 11 -3 29 -8 40 -5
12 -8 14 -8 5z"/>
<path d="M1345 760 c10 -11 23 -20 28 -20 6 0 0 9 -13 20 -13 11 -25 20 -28
20 -3 0 3 -9 13 -20z"/>
<path d="M1466 755 c-21 -14 -42 -22 -48 -19 -6 4 -8 3 -5 -3 4 -6 -3 -27 -13
-49 -11 -21 -20 -46 -20 -56 0 -25 -12 -22 -34 8 -18 25 -18 26 10 57 16 18
-15 -11 -68 -62 -54 -52 -95 -97 -92 -100 8 -8 97 -41 101 -37 2 2 -14 11 -36
19 -49 20 -67 43 -25 33 20 -5 25 -4 14 3 -27 19 -2 23 32 5 49 -26 88 -26 89
0 0 13 9 1 24 -31 13 -29 29 -53 36 -53 7 0 9 -3 5 -7 -11 -11 75 -46 125 -51
55 -5 145 19 199 53 59 37 58 49 -1 15 -159 -94 -324 -62 -359 71 -22 80 11
160 83 204 23 14 37 25 31 25 -6 0 -28 -11 -48 -25z m-118 -170 c0 -33 -2 -34
-26 -29 -38 9 -38 11 -12 39 31 33 38 32 38 -10z"/>
<path d="M975 750 c-15 -7 -16 -9 -4 -9 18 -1 29 -40 29 -102 0 -25 11 -59 30
-92 34 -61 39 -116 15 -174 -17 -41 -19 -111 -4 -133 8 -11 9 -4 5 27 -4 29 0
62 15 107 19 57 20 71 10 112 -7 26 -21 61 -33 76 -15 22 -22 51 -26 114 -2
46 -8 84 -11 83 -3 0 -15 -4 -26 -9z"/>
<path d="M2508 723 c7 -3 12 -22 12 -46 0 -26 10 -58 25 -86 42 -74 31 -167
-31 -240 -16 -20 -27 -47 -30 -74 l-4 -42 12 40 c6 22 25 57 43 77 36 43 60
131 51 183 -4 18 -18 50 -32 71 -22 31 -25 44 -19 81 6 40 5 43 -17 42 -13 0
-17 -3 -10 -6z"/>
<path d="M1554 708 c-44 -11 -65 -39 -68 -92 -2 -29 1 -42 6 -34 6 9 8 6 6 -9
-2 -12 0 -22 5 -23 4 0 13 0 20 0 7 0 39 29 71 65 45 51 55 69 47 79 -15 18
-49 24 -87 14z m23 -68 c-27 -27 -51 -50 -53 -50 -7 0 -4 45 4 57 6 10 66 37
93 42 3 0 -16 -21 -44 -49z"/>
<path d="M115 695 c3 -11 20 -44 38 -73 30 -50 34 -53 64 -49 28 5 33 2 46
-26 8 -18 31 -67 51 -110 20 -42 36 -79 36 -81 0 -2 19 -46 43 -98 24 -51 50
-108 57 -127 8 -19 15 -30 17 -24 3 9 -62 163 -147 348 -18 39 -41 89 -51 113
-18 42 -20 43 -41 28 -32 -23 -35 -21 -62 32 -13 26 -32 56 -41 67 -17 20 -17
20 -10 0z"/>
<path d="M1662 608 c-45 -46 -77 -84 -72 -86 5 -2 17 4 26 12 8 9 23 16 32 16
17 1 62 33 62 44 0 3 -7 3 -15 0 -8 -4 -15 -1 -15 5 0 6 5 11 12 11 6 0 8 3 4
7 -3 4 8 22 26 40 17 18 29 33 26 33 -3 0 -42 -37 -86 -82z"/>
<path d="M1790 665 c-19 -20 -21 -27 -10 -40 7 -8 16 -15 20 -15 7 0 21 71 15
77 -1 2 -12 -8 -25 -22z"/>
<path d="M461 658 c-14 -7 -26 -20 -28 -28 -3 -11 -2 -12 4 -2 13 17 57 -129
48 -157 -10 -33 10 -25 60 22 39 38 45 49 45 84 0 24 -7 50 -17 62 -22 27 -80
36 -112 19z m82 -15 c3 -5 -15 -9 -39 -9 -24 -1 -41 2 -38 7 6 11 71 12 77 2z
m-4 -64 c7 -19 6 -33 -3 -45 -12 -15 -15 -12 -30 31 -9 27 -16 52 -16 57 0 18
40 -18 49 -43z"/>
<path d="M2681 634 c15 -57 20 -64 13 -19 -3 22 -10 44 -14 49 -5 5 -5 -8 1
-30z"/>
<path d="M2517 590 c7 -8 16 -27 22 -40 6 -17 10 -19 10 -8 1 9 -9 27 -21 40
-13 13 -18 17 -11 8z"/>
<path d="M2326 579 c-19 -15 -26 -29 -25 -52 l1 -32 9 31 c11 40 38 66 32 31
-6 -32 41 -70 79 -65 35 6 37 -9 3 -18 -14 -3 -23 -10 -20 -14 3 -5 -7 -11
-22 -13 -26 -4 -26 -4 5 -6 46 -2 82 36 82 85 0 31 -2 35 -15 24 -17 -14 -20
-24 -5 -15 21 13 9 -5 -14 -20 -17 -11 -30 -13 -48 -6 -44 17 -46 64 -4 81 20
8 19 9 -5 9 -15 1 -38 -8 -53 -20z"/>
<path d="M930 567 c0 -2 15 -14 33 -27 20 -15 27 -17 18 -6 -13 16 -51 41 -51
33z"/>
<path d="M823 541 c-37 -23 -47 -49 -34 -84 13 -35 49 -57 92 -57 52 0 90 51
74 100 -7 23 -27 17 -23 -7 4 -22 -24 -37 -55 -29 -38 9 -48 53 -17 78 30 24
4 23 -37 -1z m49 -87 c22 -14 40 -20 43 -14 3 6 11 10 17 10 6 0 3 -9 -7 -20
-22 -24 -72 -26 -104 -4 -19 14 -22 22 -16 53 10 51 19 61 25 27 3 -19 17 -37
42 -52z"/>
<path d="M1303 519 c22 -11 41 -18 44 -15 4 3 -10 13 -30 21 -51 21 -59 18
-14 -6z"/>
<path d="M1965 482 c-4 -29 -4 -56 -1 -59 3 -4 6 5 6 19 0 43 12 39 38 -12 38
-74 37 -53 -1 31 l-34 74 -8 -53z"/>
<path d="M2281 499 c-1 -49 31 -79 85 -78 l39 2 -44 7 c-46 7 -62 23 -72 75
-6 30 -6 30 -8 -6z"/>
<path d="M2090 477 c0 -15 -4 -27 -10 -27 -14 0 -13 -37 2 -46 8 -5 9 -2 5 9
-3 10 -3 17 2 17 11 0 17 -26 26 -103 4 -32 10 -55 13 -53 8 8 -19 209 -29
221 -5 5 -9 -2 -9 -18z"/>
<path d="M2310 483 c0 -12 28 -38 34 -32 2 2 -5 13 -15 23 -11 11 -19 15 -19
9z"/>
<path d="M2634 478 c-11 -18 -12 -161 -1 -176 5 -6 7 -24 5 -40 -3 -15 -2 -49
2 -77 5 -34 8 8 9 128 0 97 -1 177 -3 177 -3 0 -8 -5 -12 -12z"/>
<path d="M761 452 c-1 -27 41 -72 66 -71 12 0 9 4 -9 10 -16 6 -32 24 -42 47
-12 30 -15 32 -15 14z"/>
<path d="M1358 455 c22 -42 100 -96 139 -95 10 1 -4 10 -32 20 -29 11 -64 35
-84 57 -18 21 -29 29 -23 18z"/>
<path d="M1150 431 c0 -17 5 -33 10 -36 6 -3 10 3 10 14 0 12 2 21 4 21 2 0
84 -39 181 -86 97 -47 178 -84 180 -82 2 2 -83 47 -190 101 l-195 97 0 -29z"/>
<path d="M1394 451 c13 -20 110 -71 136 -71 17 1 8 7 -28 19 -28 10 -60 25
-70 33 -26 23 -46 33 -38 19z"/>
<path d="M2142 430 c0 -19 2 -27 5 -17 2 9 2 25 0 35 -3 9 -5 1 -5 -18z"/>
<path d="M1133 365 c0 -44 2 -61 4 -37 2 23 2 59 0 80 -2 20 -4 1 -4 -43z"/>
<path d="M608 393 c-22 -24 -15 -73 21 -139 44 -82 138 -114 234 -80 38 14 77
42 77 57 0 11 -38 -1 -51 -17 -17 -20 -116 -18 -158 4 -53 26 -89 79 -98 141
-8 51 -9 52 -25 34z"/>
<path d="M506 355 c8 -37 14 -45 14 -19 0 10 -5 26 -10 34 -8 11 -9 7 -4 -15z"/>
<path d="M1830 352 c37 -13 120 -23 94 -12 -12 4 -43 11 -70 14 -32 4 -41 3
-24 -2z"/>
<path d="M1153 291 l5 -40 -52 -10 -51 -10 53 4 c46 4 53 2 50 -13 -2 -12 -21
-20 -73 -28 -39 -7 -73 -10 -77 -7 -5 2 -8 22 -8 44 l0 39 -25 -22 c-19 -16
-25 -32 -25 -60 0 -21 3 -38 8 -38 29 1 192 32 215 41 25 11 27 15 27 75 0 60
-13 86 -23 47 -4 -17 -5 -17 -6 0 0 9 -6 17 -12 17 -8 0 -10 -14 -6 -39z"/>
<path d="M552 305 c0 -11 3 -29 8 -40 11 -25 11 1 0 35 -6 20 -8 21 -8 5z"/>
<path d="M2606 271 c-4 -24 -5 -46 -2 -48 7 -7 19 63 14 79 -3 7 -8 -7 -12
-31z"/>
<path d="M2131 255 c3 -3 27 -9 53 -14 26 -5 44 -5 39 -1 -9 8 -100 24 -92 15z"/>
<path d="M2525 220 c17 -4 39 -8 50 -8 20 -1 20 -1 0 8 -11 5 -33 8 -50 8
l-30 0 30 -8z"/>
<path d="M522 113 c-24 -8 -41 -17 -38 -20 5 -5 106 26 106 33 0 7 -24 3 -68
-13z"/>
<path d="M2680 120 c14 -4 32 -8 40 -9 13 -1 13 0 0 9 -8 5 -26 9 -40 9 l-25
-1 25 -8z"/>
<path d="M2820 93 c0 -15 2 -16 10 -3 6 10 10 11 10 3 0 -7 9 -13 20 -13 11 0
20 7 20 15 0 10 -10 15 -30 15 -22 0 -30 -5 -30 -17z"/>
</g>
</svg>
